<svg xmlns="http://www.w3.org/2000/svg" xmlns:xlink="http://www.w3.org/1999/xlink" version="1.1" x="0px" y="0px" viewBox="-5.0 -10.0 110.0 135.0" enable-background="new 0 0 100 100" xml:space="preserve"><g><path d="M91.135,40.982c-0.986-4.638,2.901-7.653,1.46-10.812c-1.481-3.254-6.569-2.417-9.497-6.188   c-2.906-3.748-0.717-8.154-3.392-10.371c-2.75-2.282-6.967,0.685-11.243-1.438c-4.247-2.108-4.193-7.025-7.566-7.859   c-3.47-0.858-5.976,3.646-10.749,3.598c-4.741-0.05-6.834-4.501-10.233-3.783c-3.498,0.738-3.791,5.885-8.111,7.918   c-4.292,2.019-8.113-1.078-10.861,1.048c-2.828,2.187-0.852,6.947-3.856,10.657c-2.984,3.687-7.773,2.562-9.321,5.67   c-1.594,3.199,2.257,6.628,1.167,11.275c-1.082,4.617-5.884,5.688-5.924,9.162c-0.043,3.575,4.916,4.984,5.958,9.643   C10,64.129,6.144,67.186,7.618,70.329c1.517,3.235,6.596,2.346,9.561,6.086c2.946,3.719,0.805,8.146,3.5,10.334   c2.775,2.256,6.96-0.756,11.257,1.321c4.269,2.062,4.269,6.982,7.649,7.779c3.479,0.822,5.937-3.709,10.711-3.709   c4.444,0,6.552,4.012,9.708,3.352c3.266-0.686,3.727-5.436,7.797-7.297c4.312-1.973,8.102,1.164,10.87-0.935   c2.851-2.157,0.925-6.938,3.97-10.616c3.021-3.655,7.797-2.479,9.379-5.573c1.627-3.183-2.188-6.649-1.05-11.285   c1.132-4.604,5.944-5.627,6.021-9.101C97.07,47.112,92.127,45.653,91.135,40.982z M50.053,88.415   c-21.164,0-38.381-17.217-38.381-38.378c0-21.163,17.217-38.379,38.381-38.379c21.162,0,38.379,17.217,38.379,38.379   C88.434,71.198,71.215,88.415,50.053,88.415z"/><path d="M53.598,69.793c-7.869-2.083-4.987-7.49-3.047-7.984c3.385-0.86,5.85,3.504,8.499,2.57c5.543-1.951,2.234-6.548-3.192-6.18   c-4.129,0.281-9.455-10.676,3.675-5.133c11.269,4.76,9.442-7.929-0.007-6.622c-4.369,0.606-7.484-5.491,6.93-6.717   c4.389-0.374,6.48-1.458,7.17-2.816c3.303-7.235-5.574-9.823-8.325-7.719c0,0,0,0,0-0.001c0,0.001-0.002,0.004-0.002,0.004   c-1.856,2.122-4.739,2.701-6.437,1.29c-1.25-1.04-1.508-2.873-0.81-4.617c0.026-0.041,0.054-0.086,0.078-0.13   c1.292-2.271,0.119-5.376-2.62-6.933c-2.738-1.556-6.006-0.977-7.296,1.294c-0.521,0.915-0.641,1.966-0.419,2.996   c-10.403-0.714-20.112,3.551-24.932,12.028c-4.097,7.203-3.771,15.888,0.06,23.599c1.446-9.495,4.484-32.432,23.48-27.404   c7.869,2.082,4.986,7.489,3.047,7.983c-3.384,0.863-5.85-3.503-8.501-2.571c-5.541,1.952-2.232,6.551,3.195,6.181   c4.128-0.281,9.454,10.676-3.675,5.131c-11.271-4.758-9.443,7.932,0.008,6.621c4.368-0.604,5.452,4.188-8.96,5.413   c-4.273,0.364-6.367,1.401-7.112,2.71l-0.011-0.01c-3.303,7.235,5.581,9.822,8.328,7.717c0.045-0.057,0.09-0.109,0.137-0.165   c1.858-2.124,4.741-2.702,6.437-1.29c1.298,1.08,1.525,3.012,0.726,4.812c-0.095,0.129-0.184,0.264-0.266,0.404   c-1.291,2.271-0.117,5.378,2.622,6.936c2.74,1.557,6.008,0.977,7.298-1.293c0.368-0.646,0.535-1.359,0.524-2.086   c11.144,1.444,21.809-2.806,26.938-11.825c4.096-7.205,3.772-15.888-0.062-23.6C75.633,51.883,72.598,74.818,53.598,69.793z"/></g></svg>