<svg xmlns="http://www.w3.org/2000/svg" xmlns:xlink="http://www.w3.org/1999/xlink" version="1.1" x="0px" y="0px" viewBox="0 0 1000 1250" enable-background="new 0 0 1000 1000" xml:space="preserve"><path d="M533.4,742h92.2v-66.9h-92.2v-36.4h92.2v-66.9h-92.2v-36.4h92.2v-66.9h-92.2v-33.6c113.1-10.5,200-73.1,200-149  c0-56.1-47.6-105-118.2-131c-3.2-1.2-5.2,3.2-2.2,4.9c36.1,20.5,58.9,50.4,58.9,83.9c0,61.8-77.6,111.9-173.3,111.9  c-95.7,0-173.3-50.1-173.3-111.9c0-31.7,20.4-60.2,53.2-80.6c2.8-1.7,0.5-6-2.5-4.7c-65.7,26.6-109.4,73.7-109.4,127.5  c0,75.9,87,138.5,200,149v33.6h-92.2v66.9h92.2v36.4h-92.2v66.9h92.2v36.4h-92.2V742h92.2v36.4h-162v66.9h390.8v-66.9h-162V742z"/></svg>