<svg xmlns="http://www.w3.org/2000/svg" xmlns:xlink="http://www.w3.org/1999/xlink" version="1.1" x="0px" y="0px" viewBox="0 0 1000 1250" enable-background="new 0 0 1000 1000" xml:space="preserve"><g><polygon points="168.6,298.7 168.6,380.6 209.6,339.6  "/><polygon points="169,196.3 168.9,258.6 249.9,339.6 168.4,420.7 168.3,483 312.3,339.7  "/><polygon points="500,380.6 541,339.6 500,298.7 459,339.6  "/><path d="M499.7,483l144-143.3L500.3,196.3l-144,143.3L499.7,483z M581.3,339.6l-81.5,81.1l-81-81l81.5-81.1L581.3,339.6z"/><polygon points="831.4,380.6 831.4,298.7 790.4,339.6  "/><polygon points="687.7,339.6 831,483 831.1,420.7 750.1,339.7 831.6,258.6 831.7,196.3  "/><polygon points="290.8,500 331.8,541 372.8,500 331.8,459  "/><path d="M188.2,500l143.3,143.4l144-143.3L332.1,356.7L188.2,500z M331.6,581.1l-81-81l81.5-81.1l81,81L331.6,581.1z"/><polygon points="622.2,500 663.2,541 704.1,500 663.2,459  "/><path d="M519.5,500l143.3,143.4l144-143.3L663.5,356.7L519.5,500z M662.9,581.1l-81-81l81.5-81.1l81,81L662.9,581.1z"/><polygon points="372.8,179.3 290.8,179.3 331.8,220.3  "/><polygon points="704.1,179.3 622.2,179.3 663.2,220.3  "/><polygon points="475.4,179.3 413,179.3 331.6,260.4 250.6,179.3 188.2,179.3 331.5,322.6  "/><polygon points="806.8,179.3 744.3,179.3 662.9,260.4 581.9,179.3 519.5,179.3 662.8,322.6  "/><polygon points="168.6,619.4 168.6,701.3 209.6,660.4  "/><polygon points="169,517 168.9,579.3 249.9,660.3 168.4,741.4 168.3,803.7 312.3,660.4  "/><polygon points="500,619.4 459,660.4 500,701.3 541,660.4  "/><path d="M500.3,517l-144,143.3l143.3,143.4l144-143.3L500.3,517z M418.8,660.4l81.5-81.1l81,81l-81.5,81.1L418.8,660.4z"/><polygon points="831.4,701.3 831.4,619.4 790.4,660.4  "/><polygon points="831,803.7 831.1,741.4 750.1,660.4 831.6,579.3 831.7,517 687.7,660.3  "/><polygon points="290.8,820.7 372.8,820.7 331.8,779.7  "/><polygon points="188.2,820.7 250.6,820.7 332.1,739.6 413.1,820.7 475.4,820.7 332.1,677.4  "/><polygon points="622.2,820.7 704.1,820.7 663.2,779.7  "/><polygon points="519.5,820.7 582,820.7 663.4,739.6 744.4,820.7 806.8,820.7 663.5,677.4  "/></g><text x="0" y="1015" fill="#000000" font-size="5px" font-weight="bold" font-family="'Helvetica Neue', Helvetica, Arial-Unicode, Arial, Sans-serif">Created by Alvaro Cabrera</text><text x="0" y="1020" fill="#000000" font-size="5px" font-weight="bold" font-family="'Helvetica Neue', Helvetica, Arial-Unicode, Arial, Sans-serif">from the Noun Project</text></svg>