<svg xmlns="http://www.w3.org/2000/svg" xmlns:xlink="http://www.w3.org/1999/xlink" version="1.1" x="0px" y="0px" viewBox="0 0 1000 1250" enable-background="new 0 0 1000 1000" xml:space="preserve"><polygon points="814,180 186,180 186,372 746,372 746,427 186,427 186,619 746,619 746,674 186,674 186,820 254.5,820 254.5,742   372.6,742 372.6,820 441,820 441,742 559,742 559,820 627.4,820 627.4,742 745.5,742 745.5,820 814,820 814,550 254.5,550   254.5,495 814,495 814,303 254.5,303 254.5,248 814,248 "/><text x="0" y="1015" fill="#000000" font-size="5px" font-weight="bold" font-family="'Helvetica Neue', Helvetica, Arial-Unicode, Arial, Sans-serif">Created by Alvaro Cabrera</text><text x="0" y="1020" fill="#000000" font-size="5px" font-weight="bold" font-family="'Helvetica Neue', Helvetica, Arial-Unicode, Arial, Sans-serif">from the Noun Project</text></svg>